P1
# Created by GIMP version 2.10.22 PNM plug-in
70 66
0000000000000000000000000000000000000000000000000000000000000000000000
0000000000000000000000000000000000000000000000000000000000000000000000
0000000000000000000000000000000000000000000000000000000000000000000000
0000000000000000001011111101000000000000000010111111010000000000000000
0000000000001111111111111111111110000011111111111111111111000000000000
0000000001111111111111111111111111111111111111111111111111111100000000
0000000111111111111111111111111111111111111111111111111111111111000000
0000011111111111111111111111111111111111111111111111111111111111110000
0000011111111111111111111111111111111111111111111111111111111111110000
0000011111111111111111111111111111111111111111111111111111111111110000
0000111111111111111111111111111111111111111111111111111111111111110000
0000011111111111111111111111111111111111111111111111111111111111110000
0000011111111111111111111111111111111111111111111111111111111111110000
0000011111111111111111111111111111111111111111111111111111111111110000
0000011111111110000000011111111111111111111111110000000011111111110000
0000011111110000000000111111111111111111111111111000000000011111110000
0000111110000000000001111111111111111111111111111100000000000111110000
0000011100000000000001111111111111111111111111111100000000000001110000
0000010000000000000011111111111111111111111111111110000000000000010000
0000000000000000000011111111111111111111111111111110000000000000000000
0000000000000000000011111111111111111111111111111111000000000000000000
0000000000000000000111111111111111101111111111111111000000000000000000
0000000000000000000111111111111111001111111111111111000000000000000000
0000000000000000001111111111111111000111111111111111100000000000000000
0000000000000000001111111111111111000111111111111111100000000000000000
0000000000000000001111111111111110000011111111111111100000000000000000
0000000000000000001111111111111110000011111111111111100000000000000000
0000000000000000001111111111111110000011111111111111100000000000000000
0000000000000000011111111111111110000011111111111111110000000000000000
0000000000000000001111111111111100000001111111111111110000000000000000
0000000000000000011111111111111100000001111111111111100000000000000000
0000000000000000011111111111111100000001111111111111110000000000000000
0000000000000000011111111111111100000001111111111111110000000000000000
0000000000000000011111111111111100000001111111111111110000000000000000
0000000000000000011111111111111100000011111111111111110000000000000000
0000000000000000011111111111111110000001111111111111110000000000000000
0000000000000000001111111111111100000001111111111111100000000000000000
0000000000000000001111111111111110000011111111111111100000000000000000
0000000000000000011111111111111110000011111111111111100000000000000000
0000000000000000001111111111111110000011111111111111100000000000000000
0000000000000000001111111111111110000011111111111111100000000000000000
0000000000000000001111111111111111000111111111111111100000000000000000
0000000000000000000111111111111111000111111111111111100000000000000000
0000000000000000000111111111111111100111111111111111000000000000000000
0000000000000000000111111111111111101111111111111111000000000000000000
0000000000000000000111111111111111111111111111111111000000000000000000
0000000000000000000011111111111111111111111111111110000000000000000000
0000010000000000000011111111111111111111111111111110000000000000010000
0000111100000000000001111111111111111111111111111100000000000001110000
0000011111000000000001111111111111111111111111111000000000000011110000
0000011111110000000000111111111111111111111111111000000000011111110000
0000011111111110000000011111111111111111111111110000000011111111110000
0000011111111111111111111111111111111111111111111111111111111111110000
0000011111111111111111111111111111111111111111111111111111111111110000
0000111111111111111111111111111111111111111111111111111111111111110000
0000011111111111111111111111111111111111111111111111111111111111110000
0000011111111111111111111111111111111111111111111111111111111111110000
0000011111111111111111111111111111111111111111111111111111111111110000
0000011111111111111111111111111111111111111111111111111111111111110000
0000000111111111111111111111111111111111111111111111111111111111000000
0000000001111111111111111111111111111111111111111111111111111100000000
0000000000000111111111111111111110000011111111111111111111000000000000
0000000000000000010111111010000000000000000101111110100000000000000000
0000000000000000000000000000000000000000000000000000000000000000000000
0000000000000000000000000000000000000000000000000000000000000000000000
0000000000000000000000000000000000000000000000000000000000000000000000