P1
# Created by GIMP version 2.10.22 PNM plug-in
40 40
0000000000000000000000000000000000000000000000000000000000000000000000
0000000000000000000000000000000000000000000000000000000000000000000000
0000000000000000000000000000000000000000000000000000000000000000000000
0000000000000000000000000000000000000111111110000000000000000000000000
0000000100000011000000000000000000000000000000110000000100000000111110
0000000000000000100000000010000011100011000000000000000110000000001000
0010000001000000000000000100000000001100110000000010000000000000010000
0000000100110000000100000000000000010000000000010110000000011000000000
0000010000000000011100000000010000000000000001000000000000100000000001
0000000000000001000000000000000000000011000000000000000010000000000000
0000000010000000000000000010000000000000000000010000000000000000001100
0000110000000000110000000000000000000100000011011000000010000000000000
0000000010000000011000000110000000000000000000001000010000000000010000
0000000000000000001100011000000000110000000000000000000000010001100011
0000100000000000000000000000011000111110001100000000000000000000000000
1100001000001000000000000000000000000000010000000001100000000000000000
0000000000001100000001000000000000000000000000000000010000001000000000
0000000000000000000000011000001000000000000000000000000000000000110001
1000000000000000000000000000000000010001000000000000000000000000000000
0000011011000000000000000000000000000000000000111000000000000000000000
0000000000000000011000000000000000000000000000000000000000000000000000
0000000000000000000000000000000000000000000000000000000000000000000000
000000000000000000000000000000000000000000000000000000000000